<svg xmlns="http://www.w3.org/2000/svg" viewBox="0 0 640 512">
  <path fill="#667eea" d="M206.9 245.1C171 255.6 146.8 286.4 149.3 319.3C160.7 306.5 178.1 295.5 199.3 288.4L206.9 245.1zM95.78 294.9L64.11 115.5C63.74 113.9 64.37 112.9 64.37 112.9c57.75-32.13 123.1-48.99 189-48.99c1.625 0 3.113 .0745 4.738 .0745c13.1-13.5 31.75-22.75 51.62-26c18.87-3 38.12-4.5 57.25-5.5c-9.5-14-24.75-24.5-41.5-31c-24.75-9.5-51-14.75-77.25-14.75c-92.5 0-181.5 36.5-248.5 103.5C-16.62 134.1-20.87 165.9 13.38 202.4l108.4 108.4C110.9 306.6 101.4 301 95.78 294.9zM633.9 458.1L630.8 454.1L184.6 7.914C176.4-.264 163.4-.264 155.2 7.914L133.2 29.91c-8.188 8.178-8.188 21.44 0 29.62L579.4 506.1c8.188 8.178 21.44 8.178 29.62 0l21.1-21.1C638.1 476.8 638.1 463.5 633.9 458.1zM415.3 271.5L446.9 451c.375 1.5-.25 2.5-.25 2.5c-57.75 32.13-123.1 48.99-189 48.99c-1.625 0-3.113-.0745-4.738-.0745c-13.1 13.5-31.75 22.75-51.62 26c-18.87 3-38.12 4.5-57.25 5.5c9.5 14 24.75 24.5 41.5 31c24.75 9.5 51 14.75 77.25 14.75c92.5 0 181.5-36.5 248.5-103.5c48.25-48.25 52.5-80 18.25-116.5L415.3 271.5z"/>
</svg>